# xmcd
#
# Track frame offsets: 
#        183
#        19608
#        41508
#        68358
#        96408
#        125433
#        149808
#        212153
#        241833
#
# Disc length: 3438 seconds
#
# Revision: 3
# Processed by: cddbd v1.5.1PL0 Copyright (c) Steve Scherf et al.
# Submitted via: ExactAudioCopy v0.95b3
#
DISCID=7c0d6c09
DTITLE=Mitsuko Uchida - Mozart: The Piano Sonatas
DYEAR=2003
DGENRE=Classical - Concerto-Piano
TTITLE0=Piano Sonata in D major, KV 311/284c - I. Allegro con spirito
TTITLE1=Piano Sonata in D major, KV 311/284c - II. Andante con espress
TTITLE1=ione
TTITLE2=Piano Sonata in D major, KV 311/284c - III. Rondeau (Allegro)
TTITLE3=Piano Sonata in C major, KV 330/300h - I. Allegro moderato
TTITLE4=Piano Sonata in C major, KV 330/300h - II. Andante cantabile
TTITLE5=Piano Sonata in C major, KV 330/300h - III. Allegretto
TTITLE6=Piano Sonata in A major "Alla Turca" KV 331/300i - I. Andante 
TTITLE6=grazioso
TTITLE7=Piano Sonata in A major "Alla Turca" KV 331/300i - II. Menuett
TTITLE7=o
TTITLE8=Piano Sonata in A major "Alla Turca" KV 331/300i - III. Alla t
TTITLE8=urca (Allegretto)
EXTD=
EXTT0=
EXTT1=
EXTT2=
EXTT3=
EXTT4=
EXTT5=
EXTT6=
EXTT7=
EXTT8=
PLAYORDER=
